<svg width="16" height="16" viewBox="0 0 16 16" fill="none" xmlns="http://www.w3.org/2000/svg">
<g clip-path="url(#clip0_146_2634)">
<path d="M12.2381 4.9073C12.1238 4.87193 12.02 4.80879 11.936 4.72352C11.852 4.63825 11.7904 4.5335 11.7568 4.41863C11.404 3.28504 10.6831 2.30157 9.70826 1.62399C8.7334 0.94641 7.56033 0.613471 6.37487 0.677909C5.18941 0.742348 4.05934 1.20048 3.16367 1.97974C2.26801 2.75899 1.65794 3.81482 1.43013 4.97996C1.19576 6.15775 1.38463 7.38046 1.96346 8.43263C1.28922 8.78076 0.740938 9.33132 0.39562 10.007C0.0503011 10.6827 -0.0747136 11.4496 0.0381304 12.2C0.211898 13.0718 0.678673 13.858 1.36094 14.428C2.04321 14.998 2.89992 15.3174 3.7888 15.3333H9.85546C13.2375 15.3333 15.7561 13.3153 15.9815 10.4253C16.0823 9.21619 15.7658 8.00902 15.0847 7.00495C14.4035 6.00087 13.3989 5.26054 12.2381 4.9073ZM12.4435 12.498L11.3861 13.4406C11.205 13.62 10.9901 13.7617 10.754 13.8577C10.5178 13.9537 10.265 14.002 10.0101 14C9.74576 14.0005 9.48388 13.9488 9.23952 13.8479C8.99515 13.747 8.77311 13.5989 8.58613 13.412L7.5568 12.496C7.4914 12.4377 7.43811 12.3672 7.39997 12.2884C7.36183 12.2096 7.33958 12.124 7.33451 12.0366C7.32425 11.8601 7.38455 11.6867 7.50213 11.5546C7.61971 11.4226 7.78494 11.3426 7.96148 11.3323C8.04889 11.3273 8.13644 11.3395 8.21914 11.3682C8.30184 11.397 8.37807 11.4417 8.44346 11.5L9.33346 12.296V7.3333C9.33346 7.15649 9.4037 6.98692 9.52873 6.86189C9.65375 6.73687 9.82332 6.66663 10.0001 6.66663C10.1769 6.66663 10.3465 6.73687 10.4715 6.86189C10.5966 6.98692 10.6668 7.15649 10.6668 7.3333V12.2966L11.5568 11.502C11.6889 11.3844 11.8623 11.3241 12.0388 11.3343C12.2153 11.3446 12.3806 11.4246 12.4981 11.5566C12.6157 11.6887 12.676 11.8621 12.6658 12.0386C12.6555 12.2152 12.5755 12.3804 12.4435 12.498Z" fill="white"/>
</g>
<defs>
<clipPath id="clip0_146_2634">
<rect width="16" height="16" fill="white"/>
</clipPath>
</defs>
</svg>
