<svg width="100" height="100" viewBox="0 0 100 100" fill="none" xmlns="http://www.w3.org/2000/svg">
<g id="flyio">
<g id="flyio-dark">
<path id="Vector" fill-rule="evenodd" clip-rule="evenodd" d="M69.928 17.3423H81.4428C91.6848 17.3423 100 25.6575 100 35.8995V76.3888C100 86.6309 91.6848 94.946 81.4428 94.946H80.5354C75.264 94.1215 72.9778 92.5405 71.2118 91.2044L56.5716 79.1671C56.2048 78.8704 55.7474 78.7086 55.2757 78.7086C54.804 78.7086 54.3465 78.8704 53.9798 79.1671L49.2235 83.078L35.8282 72.0638C35.4619 71.7666 35.0045 71.6044 34.5328 71.6044C34.0612 71.6044 33.6038 71.7666 33.2375 72.0638L14.628 88.4347C10.8827 91.4809 8.4053 90.9182 6.79878 90.7416C2.64911 87.3361 0 82.1694 0 76.3888V35.8995C0 25.6575 8.31517 17.3423 18.5584 17.3423H30.0476L30.0269 17.3886L29.6396 18.5176L29.519 18.905L28.9977 21.2179L28.9259 21.6235L28.6969 23.9401L28.6664 24.5759L28.6616 24.7988L28.6835 25.8609L28.7359 26.4832L28.865 27.4576L29.0294 28.3346L29.2243 29.1421L29.4776 30.0166L30.1353 31.8679L30.3521 32.4233L31.497 34.8423L31.9014 35.5852L33.2253 37.858L33.732 38.6777L35.5797 41.3987L35.8464 41.7592L38.2507 44.8882L39.0278 45.8516L41.7731 49.061L42.3371 49.6785L44.6001 52.1132L45.4965 53.0413L46.9776 54.5127L46.6804 54.7611L46.4953 54.928C45.9922 55.3969 45.5148 55.8951 45.0678 56.4188C44.853 56.6721 44.6482 56.9338 44.4539 57.2032C44.1576 57.6147 43.8925 58.0479 43.661 58.4991C43.5427 58.7334 43.4366 58.9737 43.3431 59.219C43.1021 59.8456 42.9571 60.5051 42.9132 61.175L42.9046 61.7536C42.9257 62.5693 43.0919 63.3748 43.3955 64.1323C43.7031 64.9002 44.1517 65.6037 44.7182 66.2065C45.1299 66.645 45.5988 67.0274 46.1128 67.3417C46.5501 67.6096 47.0166 67.8301 47.5013 67.9982C48.555 68.3553 49.6731 68.4824 50.7801 68.3709H50.7862C51.7307 68.2793 52.6487 68.0068 53.4901 67.5682C53.8531 67.3758 54.199 67.1529 54.523 66.8995C55.4507 66.1775 56.1696 65.2216 56.6057 64.1299C56.9468 63.2785 57.1136 62.3687 57.099 61.4527L57.0722 60.9741C57.0104 60.3417 56.8595 59.7213 56.624 59.1313C56.522 58.8743 56.4061 58.623 56.2769 58.3785C56.0371 57.9282 55.7643 57.4963 55.4608 57.0863C55.3219 56.8986 55.1782 56.7147 55.0297 56.5345C54.5353 55.9444 54.0032 55.387 53.4365 54.8659L53.0358 54.5248L53.7142 53.855L56.6301 50.81L57.6386 49.7029L59.2061 47.9392L60.2256 46.7468L61.6798 44.9759L62.664 43.7384L64.1097 41.8055L64.8393 40.8055L65.8746 39.2574L66.7369 37.9384L68.3617 35.109L69.291 33.2528L69.3178 33.1955L70.0291 31.4733C70.0385 31.4511 70.0466 31.4283 70.0535 31.4051L70.8196 29.0154L70.9 28.6671L71.2325 26.7646L71.297 26.2494L71.3165 25.9339L71.3397 24.7427L71.3336 24.5211L71.2727 23.4541L71.1972 22.6259L70.8196 20.2374C70.8135 20.2058 70.8074 20.1741 70.7977 20.1424L70.3129 18.3764L70.146 17.8855L69.928 17.3423ZM75.4016 67.8337C74.2406 67.8501 73.1317 68.3186 72.3106 69.1397C71.4896 69.9607 71.0211 71.0696 71.0047 72.2307C71.0217 73.3914 71.4904 74.4998 72.3114 75.3205C73.1324 76.1413 74.2409 76.6097 75.4016 76.6264C76.5624 76.6094 77.6709 76.1409 78.492 75.3203C79.313 74.4996 79.7822 73.3914 79.7998 72.2307C79.7831 71.0695 79.3143 69.9606 78.4931 69.1396C77.6718 68.3186 76.5628 67.8501 75.4016 67.8337Z" fill="url(#paint0_radial_790_4400)"/>
<path id="Vector_2" fill-rule="evenodd" clip-rule="evenodd" d="M42.6319 94.0085L54.5633 83.9394C54.7819 83.7564 55.0578 83.656 55.3429 83.6556C55.628 83.6551 55.9043 83.7547 56.1235 83.937L68.2278 94.0085C68.9635 94.6077 69.8843 94.9353 70.8331 94.9366H40.0425C40.9876 94.9366 41.9023 94.6089 42.6319 94.0085ZM50.0592 58.0646L50.1761 58.0987C50.2139 58.117 50.2455 58.1425 50.2796 58.1657L50.3771 58.2522C50.6182 58.4738 50.8521 58.7065 51.0774 58.9452C51.2357 59.1145 51.3904 59.2887 51.539 59.4689C51.7278 59.6967 51.9044 59.9354 52.0652 60.1839C52.1346 60.2935 52.1992 60.4043 52.2601 60.52C52.3124 60.6199 52.3599 60.7234 52.4013 60.8282C52.4744 61.0109 52.5292 61.2033 52.5463 61.3994L52.5426 61.7673C52.5181 62.0992 52.4151 62.4206 52.2421 62.705C52.0691 62.9894 51.8311 63.2286 51.5475 63.403C51.1793 63.6257 50.7654 63.7619 50.3369 63.8013L49.8826 63.8147L49.4989 63.7806C49.3195 63.7544 49.143 63.7116 48.9715 63.6527C48.797 63.5932 48.6295 63.5148 48.4721 63.4188L48.1725 63.1996C47.8195 62.8982 47.579 62.486 47.4904 62.0303C47.4756 61.9537 47.4638 61.8765 47.4551 61.7989L47.4442 61.4481C47.4502 61.3531 47.4649 61.2593 47.4856 61.1656C47.5379 60.9609 47.6135 60.7624 47.7085 60.5736C47.8315 60.3373 47.9715 60.1096 48.1274 59.8928C48.3869 59.542 48.6682 59.2083 48.9691 58.8928C49.1627 58.6882 49.3613 58.4897 49.5683 58.2984L49.7157 58.1657C49.818 58.0987 49.8192 58.0987 49.9362 58.0646H50.0592ZM49.3052 9.16503L49.3527 9.16138V50.1648L49.2504 49.976C47.9006 47.4791 46.644 44.933 45.4832 42.3429C44.5416 40.2462 43.6887 38.1108 42.9267 35.9424C42.3184 34.2151 41.8041 32.4562 41.3859 30.6734C41.0632 29.2569 40.8147 27.8196 40.7124 26.3678C40.6726 25.7483 40.6608 25.1273 40.677 24.5067C40.6868 23.966 40.7087 23.4264 40.7428 22.8868C40.7964 22.0391 40.8829 21.1926 41.0071 20.3522C41.1058 19.6908 41.2276 19.0319 41.3774 18.3803C41.4968 17.8626 41.6356 17.3487 41.7939 16.8432C42.0229 16.1124 42.297 15.3987 42.6161 14.702C42.733 14.4511 42.8585 14.2014 42.99 13.9566C43.7817 12.4901 44.8559 11.1394 46.2627 10.2369C47.1768 9.64183 48.22 9.27431 49.3052 9.16503ZM54.6217 9.26856L57.3805 10.0554C58.6581 10.5267 59.8883 11.1406 61.0186 11.9079C62.5592 12.9478 63.887 14.2723 64.9307 15.8103C65.5422 16.7214 66.0488 17.7043 66.4447 18.7311C67.0184 20.2499 67.374 21.8418 67.4995 23.4593C67.536 23.8831 67.5567 24.3082 67.5652 24.7333C67.575 25.1279 67.5725 25.5238 67.5409 25.9184C67.4629 26.8014 67.2973 27.6747 67.0452 28.5249C66.8428 29.2206 66.6042 29.9052 66.3302 30.5759C65.9892 31.4103 65.6104 32.2287 65.195 33.0277C64.2767 34.8023 63.2182 36.5014 62.0855 38.1445C60.6814 40.1638 59.1845 42.1171 57.5997 43.9981C55.879 46.0502 54.0846 48.0392 52.2199 49.9613C53.4851 47.5886 54.6661 45.1718 55.7605 42.7156C56.3695 41.3466 56.9432 39.9629 57.4828 38.5659C58.0759 37.0312 58.6118 35.4759 59.0869 33.901C59.4401 32.7208 59.7519 31.5284 60.0089 30.3226C60.2293 29.2885 60.4023 28.2435 60.5095 27.1924C60.5996 26.3154 60.6325 25.4336 60.6105 24.5542C60.6022 24.0159 60.5823 23.4779 60.5509 22.9404C60.4218 20.7785 60.0929 18.6227 59.462 16.5484C59.2231 15.762 58.9326 14.9922 58.5924 14.244C57.7848 12.4853 56.6582 10.8422 55.1333 9.64248L54.6217 9.26856Z" fill="white"/>
</g>
</g>
<defs>
<radialGradient id="paint0_radial_790_4400" cx="0" cy="0" r="1" gradientUnits="userSpaceOnUse" gradientTransform="translate(53.0955 55.8062) scale(72.4412 72.4412)">
<stop stop-color="#BA7BF0"/>
<stop offset="0.45" stop-color="#996BEC"/>
<stop offset="1" stop-color="#5046E4"/>
</radialGradient>
</defs>
</svg>
