<svg width="100" height="100" viewBox="0 0 100 100" fill="none" xmlns="http://www.w3.org/2000/svg">
<path fill-rule="evenodd" clip-rule="evenodd" d="M58.9725 11.4443L79.5073 23.3008C80.1001 22.6735 80.7805 22.1351 81.5272 21.7023C85.7858 19.254 91.2179 20.7077 93.6916 24.9666C96.14 29.2256 94.6863 34.6573 90.4274 37.131C89.6862 37.5578 88.8875 37.8759 88.0557 38.0754V61.7969C88.8784 61.9968 89.6684 62.3126 90.402 62.7351C94.6863 65.2088 96.14 70.6409 93.6663 74.8998C91.2179 79.1584 85.7605 80.6121 81.5015 78.1641C80.6764 77.6907 79.9332 77.0873 79.3004 76.3771L58.8906 88.1606C59.1895 89.0657 59.3413 90.0128 59.3402 90.9659C59.3402 95.8623 55.3621 99.8664 50.4401 99.8664C45.518 99.8664 41.5399 95.8876 41.5399 90.9659C41.5399 90.091 41.6656 89.2459 41.9 88.4478L21.3708 76.5948C20.7844 77.2096 20.1137 77.738 19.3786 78.1641C15.0943 80.6121 9.66222 79.1584 7.21386 74.8998C4.76584 70.6409 6.21951 65.2088 10.4781 62.7351C11.2117 62.3125 12.0018 61.9966 12.8244 61.7966V38.0754C11.9927 37.8759 11.194 37.5578 10.4528 37.131C6.19382 34.683 4.74015 29.2256 7.18851 24.9666C9.63688 20.7077 15.094 19.254 19.3529 21.7023C20.0956 22.1328 20.7726 22.6678 21.3631 23.2907L41.9038 11.4311C41.6616 10.6093 41.5391 9.75691 41.5399 8.90015C41.5399 3.97877 45.518 0 50.4401 0C55.3621 0 59.3402 3.97842 59.3402 8.90015C59.3402 9.78479 59.2118 10.6385 58.9725 11.4443ZM56.8332 15.0974L77.4169 26.9817C77.0891 28.1274 76.9951 29.3274 77.1405 30.5102C77.2858 31.693 77.6675 32.8345 78.263 33.8668C79.516 36.0464 81.5571 37.4914 83.8225 38.0545V61.8056C83.7069 61.8338 83.5919 61.8647 83.4777 61.8973L56.594 15.3353C56.6752 15.2575 56.7551 15.178 56.8332 15.0974ZM44.2917 15.3405L17.4083 61.9018C17.2921 61.8682 17.1752 61.8369 17.0577 61.8081V38.0545C19.3231 37.4914 21.3642 36.0464 22.6172 33.8668C23.2138 32.8325 23.5959 31.6886 23.7406 30.5034C23.8854 29.3182 23.7899 28.116 23.4598 26.9685L44.0376 15.0877C44.1206 15.1735 44.2053 15.2582 44.2917 15.3405ZM52.927 17.4496L79.8041 64.0005C79.1885 64.588 78.6608 65.2612 78.2373 65.9993C77.8149 66.7329 77.499 67.523 77.2992 68.3456H23.5817C23.3816 67.5229 23.0655 66.7329 22.6429 65.9993C22.2179 65.2663 21.6912 64.5972 21.0784 64.012L47.9608 17.4517C48.7667 17.6838 49.6014 17.8011 50.4401 17.8003C51.3035 17.8003 52.1378 17.6781 52.927 17.4496ZM57.022 84.97L77.4721 73.1628C77.4108 72.9701 77.356 72.7753 77.3078 72.5789H23.5702C23.5417 72.6945 23.5108 72.809 23.4778 72.9233L44.0279 84.7884C44.8577 83.9255 45.8536 83.2394 46.9556 82.7715C48.0576 82.3036 49.2429 82.0635 50.4401 82.0658C51.6791 82.0636 52.9049 82.3209 54.0385 82.8211C55.1721 83.3213 56.1884 84.0533 57.022 84.97Z" fill="#E535AB"/>
</svg>
