<svg width="100" height="100" viewBox="0 0 100 100" fill="none" xmlns="http://www.w3.org/2000/svg">
<g id="jira">
<g id="jira_2">
<path id="Vector" d="M95.8225 0H47.6677C47.6677 5.76524 49.958 11.2943 54.0346 15.371C58.1112 19.4476 63.6403 21.7379 69.4055 21.7379H78.2762V30.3027C78.284 42.2972 88.0054 52.019 99.9999 52.0268V4.17744C99.9999 1.87096 98.1301 0 95.8225 0Z" fill="white"/>
<path id="Vector_2" d="M71.9957 23.9939H23.8412C23.8486 35.9884 33.57 45.7102 45.565 45.718H54.4356V54.3102C54.4509 66.3047 64.179 76.0198 76.1735 76.0198V28.1721C76.1735 25.8648 74.303 23.9943 71.9957 23.9943V23.9939Z" fill="url(#paint0_linear_790_4652)"/>
<path id="Vector_3" d="M48.1548 47.9739H0C0 59.9794 9.73272 69.7117 21.7378 69.7117H30.6363V78.2762C30.6442 90.2598 40.3487 99.9772 52.3326 99.9999V52.1517C52.3326 49.8444 50.4621 47.9739 48.1548 47.9739Z" fill="url(#paint1_linear_790_4652)"/>
</g>
</g>
<defs>
<linearGradient id="paint0_linear_790_4652" x1="75.1054" y1="24.0952" x2="54.6432" y2="45.2087" gradientUnits="userSpaceOnUse">
<stop offset="0.15" stop-color="white" stop-opacity="0.4"/>
<stop offset="0.29" stop-color="white" stop-opacity="0.47"/>
<stop offset="0.56" stop-color="white" stop-opacity="0.66"/>
<stop offset="0.95" stop-color="white" stop-opacity="0.96"/>
<stop offset="1" stop-color="white"/>
</linearGradient>
<linearGradient id="paint1_linear_790_4652" x1="52.7406" y1="48.2492" x2="29.0148" y2="71.3425" gradientUnits="userSpaceOnUse">
<stop offset="0.15" stop-color="white" stop-opacity="0.4"/>
<stop offset="0.29" stop-color="white" stop-opacity="0.47"/>
<stop offset="0.56" stop-color="white" stop-opacity="0.66"/>
<stop offset="0.95" stop-color="white" stop-opacity="0.96"/>
<stop offset="1" stop-color="white"/>
</linearGradient>
</defs>
</svg>
