<svg width="100" height="100" viewBox="0 0 100 100" fill="none" xmlns="http://www.w3.org/2000/svg">
<g id="mongoose">
<g id="mongoose_2">
<path id="Vector" d="M97.7327 46.548C97.6992 46.0459 97.5821 45.5688 97.3812 45.1169C97.1971 44.665 96.9377 44.2801 96.6029 43.962C96.2849 43.6273 95.8999 43.3679 95.448 43.1837C95.0129 42.9829 94.5275 42.8825 93.9919 42.8825C93.4395 42.8825 92.9374 42.9829 92.4855 43.1837C92.0503 43.3679 91.6737 43.6273 91.3557 43.962C91.0377 44.2968 90.7866 44.6901 90.6025 45.142C90.4184 45.5772 90.3096 46.0459 90.2762 46.548H97.7327ZM99.7914 50.1633C99.5069 51.6194 98.8792 52.7157 97.9084 53.4522C96.9377 54.1886 95.7158 54.5568 94.2429 54.5568C93.2052 54.5568 92.3014 54.3895 91.5315 54.0547C90.7783 53.72 90.1423 53.2513 89.6234 52.6488C89.1045 52.0462 88.7112 51.3265 88.4434 50.4896C88.1923 49.6528 88.0501 48.7406 88.0166 47.7531C88.0166 46.7656 88.1672 45.8617 88.4685 45.0416C88.7698 44.2215 89.1882 43.5101 89.7238 42.9076C90.2762 42.305 90.9206 41.8364 91.657 41.5016C92.4102 41.1669 93.2303 40.9995 94.1174 40.9995C95.2723 40.9995 96.2263 41.2422 96.9795 41.7276C97.7494 42.1962 98.3603 42.7988 98.8123 43.5352C99.2809 44.2717 99.5989 45.0751 99.7663 45.9454C99.9504 46.8158 100.026 47.6443 99.9922 48.4309H90.2762C90.2594 49 90.3264 49.544 90.477 50.0628C90.6276 50.565 90.8703 51.0169 91.2051 51.4186C91.5398 51.8035 91.9666 52.1132 92.4855 52.3475C93.0044 52.5818 93.6153 52.699 94.3183 52.699C95.2221 52.699 95.9585 52.4898 96.5276 52.0713C97.1134 51.6529 97.4984 51.0169 97.6825 50.1633H99.7914Z" fill="#880000"/>
<path id="Vector_2" d="M79.8797 50.1884C79.8965 50.657 80.0053 51.0587 80.2061 51.3935C80.407 51.7115 80.6664 51.9709 80.9844 52.1718C81.3192 52.3559 81.6874 52.4898 82.0891 52.5735C82.5075 52.6571 82.9343 52.699 83.3695 52.699C83.7043 52.699 84.0557 52.6739 84.424 52.6237C84.7922 52.5735 85.1269 52.4814 85.4282 52.3475C85.7462 52.2136 86.0057 52.0211 86.2065 51.7701C86.4074 51.5023 86.5078 51.1675 86.5078 50.7658C86.5078 50.2135 86.2986 49.795 85.8801 49.5105C85.4617 49.226 84.9345 49 84.2984 48.8326C83.6792 48.6485 83.0013 48.4895 82.2648 48.3556C81.5284 48.205 80.8422 48.0041 80.2061 47.7531C79.5868 47.4853 79.068 47.117 78.6495 46.6484C78.2311 46.1797 78.0219 45.527 78.0219 44.6901C78.0219 44.0374 78.1642 43.4767 78.4487 43.008C78.75 42.5394 79.1266 42.1628 79.5785 41.8782C80.0471 41.577 80.566 41.3594 81.1351 41.2255C81.7209 41.0748 82.2983 40.9995 82.8674 40.9995C83.6038 40.9995 84.2817 41.0665 84.901 41.2004C85.5203 41.3175 86.0642 41.5351 86.5329 41.8531C87.0183 42.1544 87.4032 42.5728 87.6878 43.1084C87.9723 43.6273 88.1397 44.2801 88.1899 45.0667H86.0559C86.0224 44.6483 85.9136 44.3052 85.7295 44.0374C85.5454 43.7528 85.3111 43.5269 85.0265 43.3595C84.742 43.1921 84.424 43.075 84.0725 43.008C83.7377 42.9243 83.3946 42.8825 83.0431 42.8825C82.7251 42.8825 82.3987 42.9076 82.064 42.9578C81.746 43.008 81.4531 43.1001 81.1853 43.234C80.9175 43.3511 80.6999 43.5185 80.5325 43.7361C80.3651 43.9369 80.2814 44.2047 80.2814 44.5395C80.2814 44.9077 80.407 45.2173 80.658 45.4684C80.9258 45.7027 81.2606 45.9036 81.6623 46.071C82.064 46.2216 82.5159 46.3555 83.018 46.4727C83.5201 46.5731 84.0223 46.6819 84.5244 46.799C85.06 46.9162 85.5788 47.0585 86.081 47.2258C86.5998 47.3932 87.0517 47.6192 87.4367 47.9037C87.8384 48.1715 88.1564 48.5146 88.3907 48.9331C88.6418 49.3515 88.7673 49.8704 88.7673 50.4896C88.7673 51.2763 88.6 51.9291 88.2652 52.4479C87.9472 52.9668 87.5204 53.3852 86.9848 53.7032C86.4659 54.0212 85.8718 54.2388 85.2023 54.356C84.5495 54.4899 83.8967 54.5568 83.244 54.5568C82.5243 54.5568 81.838 54.4815 81.1853 54.3309C80.5325 54.1802 79.9551 53.9376 79.4529 53.6028C78.9508 53.2513 78.5491 52.7994 78.2478 52.2471C77.9466 51.678 77.7792 50.9918 77.7457 50.1884H79.8797Z" fill="#880000"/>
<path id="Vector_3" d="M68.1219 47.8033C68.1219 48.5899 68.2223 49.2929 68.4231 49.9122C68.6407 50.5147 68.9336 51.0252 69.3018 51.4437C69.6701 51.8454 70.0969 52.155 70.5823 52.3726C71.0844 52.5902 71.6116 52.699 72.1639 52.699C72.7163 52.699 73.2351 52.5902 73.7205 52.3726C74.2227 52.155 74.6578 51.8454 75.026 51.4437C75.3943 51.0252 75.6788 50.5147 75.8797 49.9122C76.0972 49.2929 76.206 48.5899 76.206 47.8033C76.206 47.0166 76.0972 46.322 75.8797 45.7195C75.6788 45.1002 75.3943 44.5813 75.026 44.1629C74.6578 43.7445 74.2227 43.4264 73.7205 43.2089C73.2351 42.9913 72.7163 42.8825 72.1639 42.8825C71.6116 42.8825 71.0844 42.9913 70.5823 43.2089C70.0969 43.4264 69.6701 43.7445 69.3018 44.1629C68.9336 44.5813 68.6407 45.1002 68.4231 45.7195C68.2223 46.322 68.1219 47.0166 68.1219 47.8033ZM65.8623 47.8033C65.8623 46.8492 65.9962 45.9622 66.264 45.142C66.5318 44.3052 66.9335 43.5854 67.4691 42.9829C68.0047 42.3636 68.6658 41.8782 69.4525 41.5267C70.2391 41.1753 71.143 40.9995 72.1639 40.9995C73.2017 40.9995 74.1055 41.1753 74.8754 41.5267C75.6621 41.8782 76.3232 42.3636 76.8588 42.9829C77.3944 43.5854 77.7961 44.3052 78.0639 45.142C78.3317 45.9622 78.4656 46.8492 78.4656 47.8033C78.4656 48.7573 78.3317 49.6444 78.0639 50.4645C77.7961 51.2847 77.3944 52.0044 76.8588 52.6237C76.3232 53.2262 75.6621 53.7032 74.8754 54.0547C74.1055 54.3895 73.2017 54.5568 72.1639 54.5568C71.143 54.5568 70.2391 54.3895 69.4525 54.0547C68.6658 53.7032 68.0047 53.2262 67.4691 52.6237C66.9335 52.0044 66.5318 51.2847 66.264 50.4645C65.9962 49.6444 65.8623 48.7573 65.8623 47.8033Z" fill="#880000"/>
<path id="Vector_4" d="M56.1133 47.8033C56.1133 48.5899 56.2137 49.2929 56.4146 49.9122C56.6322 50.5147 56.9251 51.0252 57.2933 51.4437C57.6615 51.8454 58.0883 52.155 58.5737 52.3726C59.0758 52.5902 59.6031 52.699 60.1554 52.699C60.7077 52.699 61.2266 52.5902 61.712 52.3726C62.2141 52.155 62.6493 51.8454 63.0175 51.4437C63.3857 51.0252 63.6703 50.5147 63.8711 49.9122C64.0887 49.2929 64.1975 48.5899 64.1975 47.8033C64.1975 47.0166 64.0887 46.322 63.8711 45.7195C63.6703 45.1002 63.3857 44.5813 63.0175 44.1629C62.6493 43.7445 62.2141 43.4264 61.712 43.2089C61.2266 42.9913 60.7077 42.8825 60.1554 42.8825C59.6031 42.8825 59.0758 42.9913 58.5737 43.2089C58.0883 43.4264 57.6615 43.7445 57.2933 44.1629C56.9251 44.5813 56.6322 45.1002 56.4146 45.7195C56.2137 46.322 56.1133 47.0166 56.1133 47.8033ZM53.8538 47.8033C53.8538 46.8492 53.9877 45.9622 54.2555 45.142C54.5233 44.3052 54.925 43.5854 55.4606 42.9829C55.9962 42.3636 56.6573 41.8782 57.4439 41.5267C58.2306 41.1753 59.1344 40.9995 60.1554 40.9995C61.1931 40.9995 62.097 41.1753 62.8669 41.5267C63.6535 41.8782 64.3147 42.3636 64.8503 42.9829C65.3859 43.5854 65.7876 44.3052 66.0554 45.142C66.3232 45.9622 66.4571 46.8492 66.4571 47.8033C66.4571 48.7573 66.3232 49.6444 66.0554 50.4645C65.7876 51.2847 65.3859 52.0044 64.8503 52.6237C64.3147 53.2262 63.6535 53.7032 62.8669 54.0547C62.097 54.3895 61.1931 54.5568 60.1554 54.5568C59.1344 54.5568 58.2306 54.3895 57.4439 54.0547C56.6573 53.7032 55.9962 53.2262 55.4606 52.6237C54.925 52.0044 54.5233 51.2847 54.2555 50.4645C53.9877 49.6444 53.8538 48.7573 53.8538 47.8033Z" fill="#880000"/>
<path id="Vector_5" d="M53.7449 53.176C53.7449 55.3017 53.2595 56.8917 52.2888 57.9462C51.318 59.0006 49.7949 59.5279 47.7194 59.5279C47.1169 59.5279 46.4976 59.4609 45.8616 59.327C45.2423 59.1931 44.6732 58.9755 44.1544 58.6742C43.6522 58.373 43.2338 57.9796 42.8991 57.4943C42.5643 57.0089 42.3802 56.4147 42.3467 55.7117H44.4808C44.4975 56.0967 44.6147 56.4231 44.8322 56.6909C45.0666 56.9587 45.3427 57.1762 45.6607 57.3436C45.9955 57.511 46.3553 57.6282 46.7403 57.6951C47.1253 57.7788 47.4935 57.8206 47.845 57.8206C48.5479 57.8206 49.1421 57.6951 49.6275 57.444C50.1129 57.2097 50.5146 56.875 50.8326 56.4398C51.1506 56.0214 51.3766 55.5109 51.5105 54.9083C51.6611 54.3058 51.7364 53.6446 51.7364 52.9249V52.0713H51.6862C51.318 52.8747 50.7573 53.4689 50.0041 53.8539C49.2677 54.2221 48.481 54.4062 47.6441 54.4062C46.6734 54.4062 45.8281 54.2305 45.1084 53.879C44.3887 53.5275 43.7861 53.0588 43.3008 52.473C42.8154 51.8705 42.4472 51.1759 42.1961 50.3892C41.9618 49.5858 41.8446 48.7406 41.8446 47.8535C41.8446 47.0836 41.945 46.2969 42.1459 45.4935C42.3467 44.6734 42.6815 43.9369 43.1501 43.2842C43.6188 42.6147 44.2381 42.0707 45.008 41.6523C45.7779 41.2171 46.7236 40.9995 47.845 40.9995C48.6651 40.9995 49.4183 41.1836 50.1045 41.5518C50.7908 41.9033 51.3264 42.4389 51.7113 43.1586H51.7364V41.3008H53.7449V53.176ZM47.7697 52.5483C48.4726 52.5483 49.0668 52.4061 49.5522 52.1215C50.0543 51.8203 50.456 51.4353 50.7573 50.9667C51.0586 50.4813 51.2762 49.9373 51.4101 49.3348C51.5607 48.7322 51.636 48.1297 51.636 47.5271C51.636 46.958 51.5691 46.3973 51.4352 45.845C51.3013 45.2927 51.0837 44.7989 50.7824 44.3637C50.4979 43.9118 50.1213 43.552 49.6526 43.2842C49.184 43.0164 48.6149 42.8825 47.9454 42.8825C47.2592 42.8825 46.6734 43.0164 46.188 43.2842C45.7026 43.5352 45.3009 43.8784 44.9829 44.3135C44.6816 44.7487 44.4556 45.2508 44.305 45.8199C44.1711 46.389 44.1042 46.9831 44.1042 47.6024C44.1042 48.1882 44.1627 48.7741 44.2799 49.3599C44.3971 49.9457 44.5979 50.4813 44.8825 50.9667C45.167 51.4353 45.5436 51.8203 46.0122 52.1215C46.4809 52.4061 47.0667 52.5483 47.7697 52.5483Z" fill="#880000"/>
<path id="Vector_6" d="M31.0048 41.3008H33.0133V43.3595H33.0635C33.9506 41.7862 35.3565 40.9995 37.2813 40.9995C38.1349 40.9995 38.8463 41.1167 39.4153 41.351C39.9844 41.5853 40.4447 41.9117 40.7962 42.3301C41.1477 42.7486 41.3903 43.2507 41.5242 43.8365C41.6749 44.4056 41.7502 45.0416 41.7502 45.7446V54.2807H39.6162V45.4935C39.6162 44.6901 39.3819 44.0541 38.9132 43.5854C38.4446 43.1168 37.8002 42.8825 36.98 42.8825C36.3273 42.8825 35.7582 42.9829 35.2728 43.1837C34.8042 43.3846 34.4108 43.6691 34.0928 44.0374C33.7748 44.4056 33.5321 44.8408 33.3647 45.3429C33.2141 45.8283 33.1388 46.3639 33.1388 46.9497V54.2807H31.0048V41.3008Z" fill="#880000"/>
<path id="Vector_7" d="M20.5529 47.8033C20.5529 48.5899 20.6533 49.2929 20.8542 49.9122C21.0717 50.5147 21.3647 51.0252 21.7329 51.4437C22.1011 51.8454 22.5279 52.155 23.0133 52.3726C23.5154 52.5902 24.0426 52.699 24.595 52.699C25.1473 52.699 25.6662 52.5902 26.1516 52.3726C26.6537 52.155 27.0889 51.8454 27.4571 51.4437C27.8253 51.0252 28.1098 50.5147 28.3107 49.9122C28.5283 49.2929 28.6371 48.5899 28.6371 47.8033C28.6371 47.0166 28.5283 46.322 28.3107 45.7195C28.1098 45.1002 27.8253 44.5813 27.4571 44.1629C27.0889 43.7445 26.6537 43.4264 26.1516 43.2089C25.6662 42.9913 25.1473 42.8825 24.595 42.8825C24.0426 42.8825 23.5154 42.9913 23.0133 43.2089C22.5279 43.4264 22.1011 43.7445 21.7329 44.1629C21.3647 44.5813 21.0717 45.1002 20.8542 45.7195C20.6533 46.322 20.5529 47.0166 20.5529 47.8033ZM18.2933 47.8033C18.2933 46.8492 18.4272 45.9622 18.695 45.142C18.9628 44.3052 19.3645 43.5854 19.9001 42.9829C20.4357 42.3636 21.0969 41.8782 21.8835 41.5267C22.6702 41.1753 23.574 40.9995 24.595 40.9995C25.6327 40.9995 26.5365 41.1753 27.3064 41.5267C28.0931 41.8782 28.7542 42.3636 29.2898 42.9829C29.8254 43.5854 30.2271 44.3052 30.4949 45.142C30.7627 45.9622 30.8966 46.8492 30.8966 47.8033C30.8966 48.7573 30.7627 49.6444 30.4949 50.4645C30.2271 51.2847 29.8254 52.0044 29.2898 52.6237C28.7542 53.2262 28.0931 53.7032 27.3064 54.0547C26.5365 54.3895 25.6327 54.5568 24.595 54.5568C23.574 54.5568 22.6702 54.3895 21.8835 54.0547C21.0969 53.7032 20.4357 53.2262 19.9001 52.6237C19.3645 52.0044 18.9628 51.2847 18.695 50.4645C18.4272 49.6444 18.2933 48.7573 18.2933 47.8033Z" fill="#880000"/>
<path id="Vector_8" d="M0 41.3008H2.00849V43.2089H2.05871C3.02948 41.736 4.42705 40.9995 6.25144 40.9995C7.05483 40.9995 7.78291 41.1669 8.43567 41.5016C9.08843 41.8364 9.54871 42.4055 9.81651 43.2089C10.2517 42.5059 10.8208 41.9619 11.5237 41.577C12.2434 41.192 13.0301 40.9995 13.8837 40.9995C14.5365 40.9995 15.1223 41.0748 15.6411 41.2255C16.1767 41.3594 16.6286 41.577 16.9969 41.8782C17.3818 42.1795 17.6747 42.5728 17.8756 43.0582C18.0932 43.5269 18.202 44.0959 18.202 44.7654V54.2807H16.0679V45.7697C16.0679 45.368 16.0345 44.9914 15.9675 44.6399C15.9006 44.2884 15.775 43.9871 15.5909 43.7361C15.4068 43.4683 15.1474 43.2591 14.8126 43.1084C14.4946 42.9578 14.0762 42.8825 13.5573 42.8825C12.5029 42.8825 11.6744 43.1837 11.0718 43.7863C10.4693 44.3888 10.168 45.1922 10.168 46.1965V54.2807H8.03397V45.7697C8.03397 45.3512 7.99213 44.9663 7.90844 44.6148C7.84149 44.2633 7.71596 43.962 7.53185 43.711C7.34774 43.4432 7.09668 43.2423 6.77866 43.1084C6.47739 42.9578 6.08406 42.8825 5.59867 42.8825C4.97939 42.8825 4.44379 43.008 3.99188 43.2591C3.55671 43.5101 3.19685 43.8114 2.91232 44.1629C2.64452 44.5144 2.44367 44.8826 2.30977 45.2676C2.1926 45.6358 2.13402 45.9454 2.13402 46.1965V54.2807H0V41.3008Z" fill="#880000"/>
</g>
</g>
</svg>
