<svg width="100" height="100" viewBox="0 0 100 100" fill="none" xmlns="http://www.w3.org/2000/svg">
<g id="netlify2">
<g id="netlify2_2">
<path id="Vector" d="M62.8541 64.2796H55.9976L55.4249 63.707V47.6569C55.4249 44.8013 54.3028 42.588 50.8591 42.5106C49.0869 42.4641 47.0593 42.5106 44.8925 42.5957L44.5675 42.9285V49.4135V63.6993L43.9948 64.2719H37.1383L36.5656 63.6993V36.2809L37.1383 35.7083H52.5694C58.5669 35.7083 63.4268 40.5682 63.4268 46.5657V63.707L62.8541 64.2796Z" fill="white"/>
<path id="Vector_2" d="M27.0238 79.4709H26.0796L21.3668 74.7579V73.8139L28.5715 66.6091H33.563L34.2285 67.2746V72.2661L27.0238 79.4709Z" fill="#32E6E2"/>
<path id="Vector_3" d="M21.3668 26.1663V25.2222L26.0796 20.5093H27.0238L34.2285 27.714V32.7055L33.563 33.3711H28.5715L21.3668 26.1663Z" fill="#32E6E2"/>
<path id="Vector_4" d="M27.9988 54.0027H0.572666L0 53.43V46.558L0.572666 45.9854H27.9988L28.5714 46.558V53.43L27.9988 54.0027Z" fill="#32E6E2"/>
<path id="Vector_5" d="M99.4274 54.0027H72.0011L71.4284 53.43V46.558L72.0011 45.9854H99.4274L100 46.558V53.43L99.4274 54.0027Z" fill="#32E6E2"/>
<path id="Vector_6" d="M46.0455 27.1415V6.57193L46.6181 5.99927H53.4902L54.0629 6.57193V27.1415L53.4902 27.7141H46.6181L46.0455 27.1415Z" fill="#32E6E2"/>
<path id="Vector_7" d="M46.0455 93.416V72.8466L46.6181 72.2739H53.4902L54.0629 72.8466V93.416L53.4902 93.9886H46.6181L46.0455 93.416Z" fill="#32E6E2"/>
</g>
</g>
</svg>
