<svg width="100" height="100" viewBox="0 0 100 100" fill="none" xmlns="http://www.w3.org/2000/svg">
<g id="prisma">
<g id="prisma_2">
<path id="Vector" fill-rule="evenodd" clip-rule="evenodd" d="M9.77386 68.6394C8.75652 67.0347 8.74115 64.9908 9.73424 63.3706L47.1259 2.37723C49.2057 -1.0152 54.2275 -0.718578 55.8935 2.89506L90.0526 76.9942C91.3198 79.7436 89.861 82.9784 86.961 83.8485L33.824 99.7896C31.686 100.431 29.3825 99.5715 28.1874 97.6862L9.77386 68.6394ZM51.4401 20.2112C51.8004 18.4169 54.2589 18.1582 54.985 19.8381L78.5475 74.3604C78.9908 75.387 78.4389 76.5708 77.3673 76.8905L40.6538 87.85C39.3043 88.2528 38.0116 87.0737 38.2889 85.6928L51.4401 20.2112Z" fill="white"/>
</g>
</g>
</svg>
