<svg width="100" height="100" viewBox="0 0 100 100" fill="none" xmlns="http://www.w3.org/2000/svg">
<g id="supabase">
<g id="supabase_2">
<path id="Vector" d="M57.8941 98.3387C55.3395 101.556 50.1596 99.7931 50.0981 95.6853L49.198 35.6033H89.5971C96.9144 35.6033 100.995 44.0549 96.4454 49.7857L57.8941 98.3387Z" fill="url(#paint0_linear_790_7068)"/>
<path id="Vector_2" d="M57.8941 98.3387C55.3395 101.556 50.1596 99.7931 50.0981 95.6853L49.198 35.6033H89.5971C96.9144 35.6033 100.995 44.0549 96.4454 49.7857L57.8941 98.3387Z" fill="url(#paint1_linear_790_7068)" fill-opacity="0.2"/>
<path id="Vector_3" d="M41.464 1.66158C44.0187 -1.55589 49.1986 0.20705 49.2601 4.31494L49.6546 64.3969H9.76106C2.44348 64.3969 -1.63767 55.9453 2.91262 50.2145L41.464 1.66158Z" fill="#3ECF8E"/>
</g>
</g>
<defs>
<linearGradient id="paint0_linear_790_7068" x1="49.198" y1="48.925" x2="85.1033" y2="63.9836" gradientUnits="userSpaceOnUse">
<stop stop-color="#249361"/>
<stop offset="1" stop-color="#3ECF8E"/>
</linearGradient>
<linearGradient id="paint1_linear_790_7068" x1="33.2795" y1="27.1297" x2="49.6542" y2="57.9542" gradientUnits="userSpaceOnUse">
<stop/>
<stop offset="1" stop-opacity="0"/>
</linearGradient>
</defs>
</svg>
